<mxfile host="65bd71144e" modified="2021-02-17T11:34:48.890Z" agent="5.0 (Macintosh; Intel Mac OS X 11_2_1) AppleWebKit/537.36 (KHTML, like Gecko) Code/1.53.2 Chrome/87.0.4280.141 Electron/11.2.1 Safari/537.36" etag="PyAcI3JXY6ia05QdtuAt" version="14.2.4" type="embed">
    <diagram id="R2lEEEUBdFMjLlhIrx00" name="Page-1">
        <mxGraphModel dx="463" dy="532" grid="1" gridSize="10" guides="1" tooltips="1" connect="1" arrows="1" fold="1" page="1" pageScale="1" pageWidth="850" pageHeight="1100" math="0" shadow="0" extFonts="Permanent Marker^https://fonts.googleapis.com/css?family=Permanent+Marker">
            <root>
                <mxCell id="0"/>
                <mxCell id="1" parent="0"/>
                <mxCell id="Jv_EFJqljLIG1eJtzvKQ-13" value="songplays" style="shape=table;startSize=30;container=1;collapsible=1;childLayout=tableLayout;fixedRows=1;rowLines=0;fontStyle=1;align=center;resizeLast=1;" parent="1" vertex="1">
                    <mxGeometry x="338" y="310" width="252" height="310" as="geometry"/>
                </mxCell>
                <mxCell id="Jv_EFJqljLIG1eJtzvKQ-14" value="" style="shape=partialRectangle;collapsible=0;dropTarget=0;pointerEvents=0;fillColor=none;top=0;left=0;bottom=1;right=0;points=[[0,0.5],[1,0.5]];portConstraint=eastwest;" parent="Jv_EFJqljLIG1eJtzvKQ-13" vertex="1">
                    <mxGeometry y="30" width="252" height="30" as="geometry"/>
                </mxCell>
                <mxCell id="Jv_EFJqljLIG1eJtzvKQ-15" value="PK" style="shape=partialRectangle;connectable=0;fillColor=none;top=0;left=0;bottom=0;right=0;fontStyle=1;overflow=hidden;" parent="Jv_EFJqljLIG1eJtzvKQ-14" vertex="1">
                    <mxGeometry width="30" height="30" as="geometry"/>
                </mxCell>
                <mxCell id="Jv_EFJqljLIG1eJtzvKQ-16" value="songplay_idÂ bigint IDENTITY(0,1)" style="shape=partialRectangle;connectable=0;fillColor=none;top=0;left=0;bottom=0;right=0;align=left;spacingLeft=6;fontStyle=5;overflow=hidden;" parent="Jv_EFJqljLIG1eJtzvKQ-14" vertex="1">
                    <mxGeometry x="30" width="222" height="30" as="geometry"/>
                </mxCell>
                <mxCell id="Jv_EFJqljLIG1eJtzvKQ-17" value="" style="shape=partialRectangle;collapsible=0;dropTarget=0;pointerEvents=0;fillColor=none;top=0;left=0;bottom=0;right=0;points=[[0,0.5],[1,0.5]];portConstraint=eastwest;" parent="Jv_EFJqljLIG1eJtzvKQ-13" vertex="1">
                    <mxGeometry y="60" width="252" height="30" as="geometry"/>
                </mxCell>
                <mxCell id="Jv_EFJqljLIG1eJtzvKQ-18" value="FK1" style="shape=partialRectangle;connectable=0;fillColor=none;top=0;left=0;bottom=0;right=0;editable=1;overflow=hidden;" parent="Jv_EFJqljLIG1eJtzvKQ-17" vertex="1">
                    <mxGeometry width="30" height="30" as="geometry"/>
                </mxCell>
                <mxCell id="Jv_EFJqljLIG1eJtzvKQ-19" value="start_time timestamp NOT NULL" style="shape=partialRectangle;connectable=0;fillColor=none;top=0;left=0;bottom=0;right=0;align=left;spacingLeft=6;overflow=hidden;" parent="Jv_EFJqljLIG1eJtzvKQ-17" vertex="1">
                    <mxGeometry x="30" width="222" height="30" as="geometry"/>
                </mxCell>
                <mxCell id="Jv_EFJqljLIG1eJtzvKQ-20" value="" style="shape=partialRectangle;collapsible=0;dropTarget=0;pointerEvents=0;fillColor=none;top=0;left=0;bottom=0;right=0;points=[[0,0.5],[1,0.5]];portConstraint=eastwest;" parent="Jv_EFJqljLIG1eJtzvKQ-13" vertex="1">
                    <mxGeometry y="90" width="252" height="30" as="geometry"/>
                </mxCell>
                <mxCell id="Jv_EFJqljLIG1eJtzvKQ-21" value="FK2" style="shape=partialRectangle;connectable=0;fillColor=none;top=0;left=0;bottom=0;right=0;editable=1;overflow=hidden;" parent="Jv_EFJqljLIG1eJtzvKQ-20" vertex="1">
                    <mxGeometry width="30" height="30" as="geometry"/>
                </mxCell>
                <mxCell id="Jv_EFJqljLIG1eJtzvKQ-22" value="user_id int NOT NULL" style="shape=partialRectangle;connectable=0;fillColor=none;top=0;left=0;bottom=0;right=0;align=left;spacingLeft=6;overflow=hidden;" parent="Jv_EFJqljLIG1eJtzvKQ-20" vertex="1">
                    <mxGeometry x="30" width="222" height="30" as="geometry"/>
                </mxCell>
                <mxCell id="Jv_EFJqljLIG1eJtzvKQ-23" value="" style="shape=partialRectangle;collapsible=0;dropTarget=0;pointerEvents=0;fillColor=none;top=0;left=0;bottom=0;right=0;points=[[0,0.5],[1,0.5]];portConstraint=eastwest;" parent="Jv_EFJqljLIG1eJtzvKQ-13" vertex="1">
                    <mxGeometry y="120" width="252" height="30" as="geometry"/>
                </mxCell>
                <mxCell id="Jv_EFJqljLIG1eJtzvKQ-24" value="" style="shape=partialRectangle;connectable=0;fillColor=none;top=0;left=0;bottom=0;right=0;editable=1;overflow=hidden;" parent="Jv_EFJqljLIG1eJtzvKQ-23" vertex="1">
                    <mxGeometry width="30" height="30" as="geometry"/>
                </mxCell>
                <mxCell id="Jv_EFJqljLIG1eJtzvKQ-25" value="level varchar NOT NULL" style="shape=partialRectangle;connectable=0;fillColor=none;top=0;left=0;bottom=0;right=0;align=left;spacingLeft=6;overflow=hidden;" parent="Jv_EFJqljLIG1eJtzvKQ-23" vertex="1">
                    <mxGeometry x="30" width="222" height="30" as="geometry"/>
                </mxCell>
                <mxCell id="Jv_EFJqljLIG1eJtzvKQ-26" style="shape=partialRectangle;collapsible=0;dropTarget=0;pointerEvents=0;fillColor=none;top=0;left=0;bottom=0;right=0;points=[[0,0.5],[1,0.5]];portConstraint=eastwest;" parent="Jv_EFJqljLIG1eJtzvKQ-13" vertex="1">
                    <mxGeometry y="150" width="252" height="30" as="geometry"/>
                </mxCell>
                <mxCell id="Jv_EFJqljLIG1eJtzvKQ-27" value="FK3" style="shape=partialRectangle;connectable=0;fillColor=none;top=0;left=0;bottom=0;right=0;editable=1;overflow=hidden;" parent="Jv_EFJqljLIG1eJtzvKQ-26" vertex="1">
                    <mxGeometry width="30" height="30" as="geometry"/>
                </mxCell>
                <mxCell id="Jv_EFJqljLIG1eJtzvKQ-28" value="song_id varchar NOT NULL" style="shape=partialRectangle;connectable=0;fillColor=none;top=0;left=0;bottom=0;right=0;align=left;spacingLeft=6;overflow=hidden;" parent="Jv_EFJqljLIG1eJtzvKQ-26" vertex="1">
                    <mxGeometry x="30" width="222" height="30" as="geometry"/>
                </mxCell>
                <mxCell id="Jv_EFJqljLIG1eJtzvKQ-29" style="shape=partialRectangle;collapsible=0;dropTarget=0;pointerEvents=0;fillColor=none;top=0;left=0;bottom=0;right=0;points=[[0,0.5],[1,0.5]];portConstraint=eastwest;" parent="Jv_EFJqljLIG1eJtzvKQ-13" vertex="1">
                    <mxGeometry y="180" width="252" height="30" as="geometry"/>
                </mxCell>
                <mxCell id="Jv_EFJqljLIG1eJtzvKQ-30" value="FK4" style="shape=partialRectangle;connectable=0;fillColor=none;top=0;left=0;bottom=0;right=0;editable=1;overflow=hidden;" parent="Jv_EFJqljLIG1eJtzvKQ-29" vertex="1">
                    <mxGeometry width="30" height="30" as="geometry"/>
                </mxCell>
                <mxCell id="Jv_EFJqljLIG1eJtzvKQ-31" value="artist_id varchar NOT NULL" style="shape=partialRectangle;connectable=0;fillColor=none;top=0;left=0;bottom=0;right=0;align=left;spacingLeft=6;overflow=hidden;" parent="Jv_EFJqljLIG1eJtzvKQ-29" vertex="1">
                    <mxGeometry x="30" width="222" height="30" as="geometry"/>
                </mxCell>
                <mxCell id="Jv_EFJqljLIG1eJtzvKQ-32" style="shape=partialRectangle;collapsible=0;dropTarget=0;pointerEvents=0;fillColor=none;top=0;left=0;bottom=0;right=0;points=[[0,0.5],[1,0.5]];portConstraint=eastwest;" parent="Jv_EFJqljLIG1eJtzvKQ-13" vertex="1">
                    <mxGeometry y="210" width="252" height="30" as="geometry"/>
                </mxCell>
                <mxCell id="Jv_EFJqljLIG1eJtzvKQ-33" style="shape=partialRectangle;connectable=0;fillColor=none;top=0;left=0;bottom=0;right=0;editable=1;overflow=hidden;" parent="Jv_EFJqljLIG1eJtzvKQ-32" vertex="1">
                    <mxGeometry width="30" height="30" as="geometry"/>
                </mxCell>
                <mxCell id="Jv_EFJqljLIG1eJtzvKQ-34" value="session_id int" style="shape=partialRectangle;connectable=0;fillColor=none;top=0;left=0;bottom=0;right=0;align=left;spacingLeft=6;overflow=hidden;" parent="Jv_EFJqljLIG1eJtzvKQ-32" vertex="1">
                    <mxGeometry x="30" width="222" height="30" as="geometry"/>
                </mxCell>
                <mxCell id="Jv_EFJqljLIG1eJtzvKQ-35" style="shape=partialRectangle;collapsible=0;dropTarget=0;pointerEvents=0;fillColor=none;top=0;left=0;bottom=0;right=0;points=[[0,0.5],[1,0.5]];portConstraint=eastwest;" parent="Jv_EFJqljLIG1eJtzvKQ-13" vertex="1">
                    <mxGeometry y="240" width="252" height="30" as="geometry"/>
                </mxCell>
                <mxCell id="Jv_EFJqljLIG1eJtzvKQ-36" style="shape=partialRectangle;connectable=0;fillColor=none;top=0;left=0;bottom=0;right=0;editable=1;overflow=hidden;" parent="Jv_EFJqljLIG1eJtzvKQ-35" vertex="1">
                    <mxGeometry width="30" height="30" as="geometry"/>
                </mxCell>
                <mxCell id="Jv_EFJqljLIG1eJtzvKQ-37" value="location varchar" style="shape=partialRectangle;connectable=0;fillColor=none;top=0;left=0;bottom=0;right=0;align=left;spacingLeft=6;overflow=hidden;" parent="Jv_EFJqljLIG1eJtzvKQ-35" vertex="1">
                    <mxGeometry x="30" width="222" height="30" as="geometry"/>
                </mxCell>
                <mxCell id="Jv_EFJqljLIG1eJtzvKQ-38" style="shape=partialRectangle;collapsible=0;dropTarget=0;pointerEvents=0;fillColor=none;top=0;left=0;bottom=0;right=0;points=[[0,0.5],[1,0.5]];portConstraint=eastwest;" parent="Jv_EFJqljLIG1eJtzvKQ-13" vertex="1">
                    <mxGeometry y="270" width="252" height="30" as="geometry"/>
                </mxCell>
                <mxCell id="Jv_EFJqljLIG1eJtzvKQ-39" style="shape=partialRectangle;connectable=0;fillColor=none;top=0;left=0;bottom=0;right=0;editable=1;overflow=hidden;" parent="Jv_EFJqljLIG1eJtzvKQ-38" vertex="1">
                    <mxGeometry width="30" height="30" as="geometry"/>
                </mxCell>
                <mxCell id="Jv_EFJqljLIG1eJtzvKQ-40" value="user_agent varchar" style="shape=partialRectangle;connectable=0;fillColor=none;top=0;left=0;bottom=0;right=0;align=left;spacingLeft=6;overflow=hidden;" parent="Jv_EFJqljLIG1eJtzvKQ-38" vertex="1">
                    <mxGeometry x="30" width="222" height="30" as="geometry"/>
                </mxCell>
                <mxCell id="Jv_EFJqljLIG1eJtzvKQ-47" value="users" style="shape=table;startSize=30;container=1;collapsible=1;childLayout=tableLayout;fixedRows=1;rowLines=0;fontStyle=1;align=center;resizeLast=1;" parent="1" vertex="1">
                    <mxGeometry x="58" y="80" width="220" height="190" as="geometry"/>
                </mxCell>
                <mxCell id="Jv_EFJqljLIG1eJtzvKQ-48" value="" style="shape=partialRectangle;collapsible=0;dropTarget=0;pointerEvents=0;fillColor=none;top=0;left=0;bottom=1;right=0;points=[[0,0.5],[1,0.5]];portConstraint=eastwest;" parent="Jv_EFJqljLIG1eJtzvKQ-47" vertex="1">
                    <mxGeometry y="30" width="220" height="30" as="geometry"/>
                </mxCell>
                <mxCell id="Jv_EFJqljLIG1eJtzvKQ-49" value="PK" style="shape=partialRectangle;connectable=0;fillColor=none;top=0;left=0;bottom=0;right=0;fontStyle=1;overflow=hidden;" parent="Jv_EFJqljLIG1eJtzvKQ-48" vertex="1">
                    <mxGeometry width="30" height="30" as="geometry"/>
                </mxCell>
                <mxCell id="Jv_EFJqljLIG1eJtzvKQ-50" value="user_id int" style="shape=partialRectangle;connectable=0;fillColor=none;top=0;left=0;bottom=0;right=0;align=left;spacingLeft=6;fontStyle=5;overflow=hidden;" parent="Jv_EFJqljLIG1eJtzvKQ-48" vertex="1">
                    <mxGeometry x="30" width="190" height="30" as="geometry"/>
                </mxCell>
                <mxCell id="Jv_EFJqljLIG1eJtzvKQ-51" value="" style="shape=partialRectangle;collapsible=0;dropTarget=0;pointerEvents=0;fillColor=none;top=0;left=0;bottom=0;right=0;points=[[0,0.5],[1,0.5]];portConstraint=eastwest;" parent="Jv_EFJqljLIG1eJtzvKQ-47" vertex="1">
                    <mxGeometry y="60" width="220" height="30" as="geometry"/>
                </mxCell>
                <mxCell id="Jv_EFJqljLIG1eJtzvKQ-52" value="" style="shape=partialRectangle;connectable=0;fillColor=none;top=0;left=0;bottom=0;right=0;editable=1;overflow=hidden;" parent="Jv_EFJqljLIG1eJtzvKQ-51" vertex="1">
                    <mxGeometry width="30" height="30" as="geometry"/>
                </mxCell>
                <mxCell id="Jv_EFJqljLIG1eJtzvKQ-53" value="first_name varcharÂ  NOT NULL" style="shape=partialRectangle;connectable=0;fillColor=none;top=0;left=0;bottom=0;right=0;align=left;spacingLeft=6;overflow=hidden;" parent="Jv_EFJqljLIG1eJtzvKQ-51" vertex="1">
                    <mxGeometry x="30" width="190" height="30" as="geometry"/>
                </mxCell>
                <mxCell id="Jv_EFJqljLIG1eJtzvKQ-54" value="" style="shape=partialRectangle;collapsible=0;dropTarget=0;pointerEvents=0;fillColor=none;top=0;left=0;bottom=0;right=0;points=[[0,0.5],[1,0.5]];portConstraint=eastwest;" parent="Jv_EFJqljLIG1eJtzvKQ-47" vertex="1">
                    <mxGeometry y="90" width="220" height="30" as="geometry"/>
                </mxCell>
                <mxCell id="Jv_EFJqljLIG1eJtzvKQ-55" value="" style="shape=partialRectangle;connectable=0;fillColor=none;top=0;left=0;bottom=0;right=0;editable=1;overflow=hidden;" parent="Jv_EFJqljLIG1eJtzvKQ-54" vertex="1">
                    <mxGeometry width="30" height="30" as="geometry"/>
                </mxCell>
                <mxCell id="Jv_EFJqljLIG1eJtzvKQ-56" value="last_name varchar NOT NULL" style="shape=partialRectangle;connectable=0;fillColor=none;top=0;left=0;bottom=0;right=0;align=left;spacingLeft=6;overflow=hidden;" parent="Jv_EFJqljLIG1eJtzvKQ-54" vertex="1">
                    <mxGeometry x="30" width="190" height="30" as="geometry"/>
                </mxCell>
                <mxCell id="Jv_EFJqljLIG1eJtzvKQ-57" value="" style="shape=partialRectangle;collapsible=0;dropTarget=0;pointerEvents=0;fillColor=none;top=0;left=0;bottom=0;right=0;points=[[0,0.5],[1,0.5]];portConstraint=eastwest;" parent="Jv_EFJqljLIG1eJtzvKQ-47" vertex="1">
                    <mxGeometry y="120" width="220" height="30" as="geometry"/>
                </mxCell>
                <mxCell id="Jv_EFJqljLIG1eJtzvKQ-58" value="" style="shape=partialRectangle;connectable=0;fillColor=none;top=0;left=0;bottom=0;right=0;editable=1;overflow=hidden;" parent="Jv_EFJqljLIG1eJtzvKQ-57" vertex="1">
                    <mxGeometry width="30" height="30" as="geometry"/>
                </mxCell>
                <mxCell id="Jv_EFJqljLIG1eJtzvKQ-59" value="gender varchar(1)Â  NOT NULL" style="shape=partialRectangle;connectable=0;fillColor=none;top=0;left=0;bottom=0;right=0;align=left;spacingLeft=6;overflow=hidden;" parent="Jv_EFJqljLIG1eJtzvKQ-57" vertex="1">
                    <mxGeometry x="30" width="190" height="30" as="geometry"/>
                </mxCell>
                <mxCell id="Jv_EFJqljLIG1eJtzvKQ-60" style="shape=partialRectangle;collapsible=0;dropTarget=0;pointerEvents=0;fillColor=none;top=0;left=0;bottom=0;right=0;points=[[0,0.5],[1,0.5]];portConstraint=eastwest;" parent="Jv_EFJqljLIG1eJtzvKQ-47" vertex="1">
                    <mxGeometry y="150" width="220" height="30" as="geometry"/>
                </mxCell>
                <mxCell id="Jv_EFJqljLIG1eJtzvKQ-61" style="shape=partialRectangle;connectable=0;fillColor=none;top=0;left=0;bottom=0;right=0;editable=1;overflow=hidden;" parent="Jv_EFJqljLIG1eJtzvKQ-60" vertex="1">
                    <mxGeometry width="30" height="30" as="geometry"/>
                </mxCell>
                <mxCell id="Jv_EFJqljLIG1eJtzvKQ-62" value="level varcharÂ  NOT NULL" style="shape=partialRectangle;connectable=0;fillColor=none;top=0;left=0;bottom=0;right=0;align=left;spacingLeft=6;overflow=hidden;" parent="Jv_EFJqljLIG1eJtzvKQ-60" vertex="1">
                    <mxGeometry x="30" width="190" height="30" as="geometry"/>
                </mxCell>
                <mxCell id="Jv_EFJqljLIG1eJtzvKQ-63" value="songs" style="shape=table;startSize=30;container=1;collapsible=1;childLayout=tableLayout;fixedRows=1;rowLines=0;fontStyle=1;align=center;resizeLast=1;" parent="1" vertex="1">
                    <mxGeometry x="58" y="650" width="222" height="190" as="geometry"/>
                </mxCell>
                <mxCell id="Jv_EFJqljLIG1eJtzvKQ-64" value="" style="shape=partialRectangle;collapsible=0;dropTarget=0;pointerEvents=0;fillColor=none;top=0;left=0;bottom=1;right=0;points=[[0,0.5],[1,0.5]];portConstraint=eastwest;" parent="Jv_EFJqljLIG1eJtzvKQ-63" vertex="1">
                    <mxGeometry y="30" width="222" height="30" as="geometry"/>
                </mxCell>
                <mxCell id="Jv_EFJqljLIG1eJtzvKQ-65" value="PK" style="shape=partialRectangle;connectable=0;fillColor=none;top=0;left=0;bottom=0;right=0;fontStyle=1;overflow=hidden;" parent="Jv_EFJqljLIG1eJtzvKQ-64" vertex="1">
                    <mxGeometry width="30" height="30" as="geometry"/>
                </mxCell>
                <mxCell id="Jv_EFJqljLIG1eJtzvKQ-66" value="song_id varchar" style="shape=partialRectangle;connectable=0;fillColor=none;top=0;left=0;bottom=0;right=0;align=left;spacingLeft=6;fontStyle=5;overflow=hidden;" parent="Jv_EFJqljLIG1eJtzvKQ-64" vertex="1">
                    <mxGeometry x="30" width="192" height="30" as="geometry"/>
                </mxCell>
                <mxCell id="Jv_EFJqljLIG1eJtzvKQ-67" value="" style="shape=partialRectangle;collapsible=0;dropTarget=0;pointerEvents=0;fillColor=none;top=0;left=0;bottom=0;right=0;points=[[0,0.5],[1,0.5]];portConstraint=eastwest;" parent="Jv_EFJqljLIG1eJtzvKQ-63" vertex="1">
                    <mxGeometry y="60" width="222" height="30" as="geometry"/>
                </mxCell>
                <mxCell id="Jv_EFJqljLIG1eJtzvKQ-68" value="" style="shape=partialRectangle;connectable=0;fillColor=none;top=0;left=0;bottom=0;right=0;editable=1;overflow=hidden;" parent="Jv_EFJqljLIG1eJtzvKQ-67" vertex="1">
                    <mxGeometry width="30" height="30" as="geometry"/>
                </mxCell>
                <mxCell id="Jv_EFJqljLIG1eJtzvKQ-69" value="title varchar NOT NULL" style="shape=partialRectangle;connectable=0;fillColor=none;top=0;left=0;bottom=0;right=0;align=left;spacingLeft=6;overflow=hidden;" parent="Jv_EFJqljLIG1eJtzvKQ-67" vertex="1">
                    <mxGeometry x="30" width="192" height="30" as="geometry"/>
                </mxCell>
                <mxCell id="Jv_EFJqljLIG1eJtzvKQ-70" value="" style="shape=partialRectangle;collapsible=0;dropTarget=0;pointerEvents=0;fillColor=none;top=0;left=0;bottom=0;right=0;points=[[0,0.5],[1,0.5]];portConstraint=eastwest;" parent="Jv_EFJqljLIG1eJtzvKQ-63" vertex="1">
                    <mxGeometry y="90" width="222" height="30" as="geometry"/>
                </mxCell>
                <mxCell id="Jv_EFJqljLIG1eJtzvKQ-71" value="FK1" style="shape=partialRectangle;connectable=0;fillColor=none;top=0;left=0;bottom=0;right=0;editable=1;overflow=hidden;" parent="Jv_EFJqljLIG1eJtzvKQ-70" vertex="1">
                    <mxGeometry width="30" height="30" as="geometry"/>
                </mxCell>
                <mxCell id="Jv_EFJqljLIG1eJtzvKQ-72" value="artist_id varchar NOT NULL" style="shape=partialRectangle;connectable=0;fillColor=none;top=0;left=0;bottom=0;right=0;align=left;spacingLeft=6;overflow=hidden;" parent="Jv_EFJqljLIG1eJtzvKQ-70" vertex="1">
                    <mxGeometry x="30" width="192" height="30" as="geometry"/>
                </mxCell>
                <mxCell id="Jv_EFJqljLIG1eJtzvKQ-73" value="" style="shape=partialRectangle;collapsible=0;dropTarget=0;pointerEvents=0;fillColor=none;top=0;left=0;bottom=0;right=0;points=[[0,0.5],[1,0.5]];portConstraint=eastwest;" parent="Jv_EFJqljLIG1eJtzvKQ-63" vertex="1">
                    <mxGeometry y="120" width="222" height="30" as="geometry"/>
                </mxCell>
                <mxCell id="Jv_EFJqljLIG1eJtzvKQ-74" value="" style="shape=partialRectangle;connectable=0;fillColor=none;top=0;left=0;bottom=0;right=0;editable=1;overflow=hidden;" parent="Jv_EFJqljLIG1eJtzvKQ-73" vertex="1">
                    <mxGeometry width="30" height="30" as="geometry"/>
                </mxCell>
                <mxCell id="Jv_EFJqljLIG1eJtzvKQ-75" value="year int" style="shape=partialRectangle;connectable=0;fillColor=none;top=0;left=0;bottom=0;right=0;align=left;spacingLeft=6;overflow=hidden;" parent="Jv_EFJqljLIG1eJtzvKQ-73" vertex="1">
                    <mxGeometry x="30" width="192" height="30" as="geometry"/>
                </mxCell>
                <mxCell id="Jv_EFJqljLIG1eJtzvKQ-76" style="shape=partialRectangle;collapsible=0;dropTarget=0;pointerEvents=0;fillColor=none;top=0;left=0;bottom=0;right=0;points=[[0,0.5],[1,0.5]];portConstraint=eastwest;" parent="Jv_EFJqljLIG1eJtzvKQ-63" vertex="1">
                    <mxGeometry y="150" width="222" height="30" as="geometry"/>
                </mxCell>
                <mxCell id="Jv_EFJqljLIG1eJtzvKQ-77" style="shape=partialRectangle;connectable=0;fillColor=none;top=0;left=0;bottom=0;right=0;editable=1;overflow=hidden;" parent="Jv_EFJqljLIG1eJtzvKQ-76" vertex="1">
                    <mxGeometry width="30" height="30" as="geometry"/>
                </mxCell>
                <mxCell id="Jv_EFJqljLIG1eJtzvKQ-78" value="duration numeric" style="shape=partialRectangle;connectable=0;fillColor=none;top=0;left=0;bottom=0;right=0;align=left;spacingLeft=6;overflow=hidden;" parent="Jv_EFJqljLIG1eJtzvKQ-76" vertex="1">
                    <mxGeometry x="30" width="192" height="30" as="geometry"/>
                </mxCell>
                <mxCell id="Jv_EFJqljLIG1eJtzvKQ-79" value="artists" style="shape=table;startSize=30;container=1;collapsible=1;childLayout=tableLayout;fixedRows=1;rowLines=0;fontStyle=1;align=center;resizeLast=1;" parent="1" vertex="1">
                    <mxGeometry x="620" y="650" width="180" height="190" as="geometry"/>
                </mxCell>
                <mxCell id="Jv_EFJqljLIG1eJtzvKQ-80" value="" style="shape=partialRectangle;collapsible=0;dropTarget=0;pointerEvents=0;fillColor=none;top=0;left=0;bottom=1;right=0;points=[[0,0.5],[1,0.5]];portConstraint=eastwest;" parent="Jv_EFJqljLIG1eJtzvKQ-79" vertex="1">
                    <mxGeometry y="30" width="180" height="30" as="geometry"/>
                </mxCell>
                <mxCell id="Jv_EFJqljLIG1eJtzvKQ-81" value="PK" style="shape=partialRectangle;connectable=0;fillColor=none;top=0;left=0;bottom=0;right=0;fontStyle=1;overflow=hidden;" parent="Jv_EFJqljLIG1eJtzvKQ-80" vertex="1">
                    <mxGeometry width="30" height="30" as="geometry"/>
                </mxCell>
                <mxCell id="Jv_EFJqljLIG1eJtzvKQ-82" value="artist_id varchar" style="shape=partialRectangle;connectable=0;fillColor=none;top=0;left=0;bottom=0;right=0;align=left;spacingLeft=6;fontStyle=5;overflow=hidden;" parent="Jv_EFJqljLIG1eJtzvKQ-80" vertex="1">
                    <mxGeometry x="30" width="150" height="30" as="geometry"/>
                </mxCell>
                <mxCell id="Jv_EFJqljLIG1eJtzvKQ-83" value="" style="shape=partialRectangle;collapsible=0;dropTarget=0;pointerEvents=0;fillColor=none;top=0;left=0;bottom=0;right=0;points=[[0,0.5],[1,0.5]];portConstraint=eastwest;" parent="Jv_EFJqljLIG1eJtzvKQ-79" vertex="1">
                    <mxGeometry y="60" width="180" height="30" as="geometry"/>
                </mxCell>
                <mxCell id="Jv_EFJqljLIG1eJtzvKQ-84" value="" style="shape=partialRectangle;connectable=0;fillColor=none;top=0;left=0;bottom=0;right=0;editable=1;overflow=hidden;" parent="Jv_EFJqljLIG1eJtzvKQ-83" vertex="1">
                    <mxGeometry width="30" height="30" as="geometry"/>
                </mxCell>
                <mxCell id="Jv_EFJqljLIG1eJtzvKQ-85" value="name varchar NOT NULL" style="shape=partialRectangle;connectable=0;fillColor=none;top=0;left=0;bottom=0;right=0;align=left;spacingLeft=6;overflow=hidden;" parent="Jv_EFJqljLIG1eJtzvKQ-83" vertex="1">
                    <mxGeometry x="30" width="150" height="30" as="geometry"/>
                </mxCell>
                <mxCell id="Jv_EFJqljLIG1eJtzvKQ-86" value="" style="shape=partialRectangle;collapsible=0;dropTarget=0;pointerEvents=0;fillColor=none;top=0;left=0;bottom=0;right=0;points=[[0,0.5],[1,0.5]];portConstraint=eastwest;" parent="Jv_EFJqljLIG1eJtzvKQ-79" vertex="1">
                    <mxGeometry y="90" width="180" height="30" as="geometry"/>
                </mxCell>
                <mxCell id="Jv_EFJqljLIG1eJtzvKQ-87" value="" style="shape=partialRectangle;connectable=0;fillColor=none;top=0;left=0;bottom=0;right=0;editable=1;overflow=hidden;" parent="Jv_EFJqljLIG1eJtzvKQ-86" vertex="1">
                    <mxGeometry width="30" height="30" as="geometry"/>
                </mxCell>
                <mxCell id="Jv_EFJqljLIG1eJtzvKQ-88" value="location varchar" style="shape=partialRectangle;connectable=0;fillColor=none;top=0;left=0;bottom=0;right=0;align=left;spacingLeft=6;overflow=hidden;" parent="Jv_EFJqljLIG1eJtzvKQ-86" vertex="1">
                    <mxGeometry x="30" width="150" height="30" as="geometry"/>
                </mxCell>
                <mxCell id="Jv_EFJqljLIG1eJtzvKQ-89" value="" style="shape=partialRectangle;collapsible=0;dropTarget=0;pointerEvents=0;fillColor=none;top=0;left=0;bottom=0;right=0;points=[[0,0.5],[1,0.5]];portConstraint=eastwest;" parent="Jv_EFJqljLIG1eJtzvKQ-79" vertex="1">
                    <mxGeometry y="120" width="180" height="30" as="geometry"/>
                </mxCell>
                <mxCell id="Jv_EFJqljLIG1eJtzvKQ-90" value="" style="shape=partialRectangle;connectable=0;fillColor=none;top=0;left=0;bottom=0;right=0;editable=1;overflow=hidden;" parent="Jv_EFJqljLIG1eJtzvKQ-89" vertex="1">
                    <mxGeometry width="30" height="30" as="geometry"/>
                </mxCell>
                <mxCell id="Jv_EFJqljLIG1eJtzvKQ-91" value="latitude float" style="shape=partialRectangle;connectable=0;fillColor=none;top=0;left=0;bottom=0;right=0;align=left;spacingLeft=6;overflow=hidden;" parent="Jv_EFJqljLIG1eJtzvKQ-89" vertex="1">
                    <mxGeometry x="30" width="150" height="30" as="geometry"/>
                </mxCell>
                <mxCell id="Jv_EFJqljLIG1eJtzvKQ-92" style="shape=partialRectangle;collapsible=0;dropTarget=0;pointerEvents=0;fillColor=none;top=0;left=0;bottom=0;right=0;points=[[0,0.5],[1,0.5]];portConstraint=eastwest;" parent="Jv_EFJqljLIG1eJtzvKQ-79" vertex="1">
                    <mxGeometry y="150" width="180" height="30" as="geometry"/>
                </mxCell>
                <mxCell id="Jv_EFJqljLIG1eJtzvKQ-93" style="shape=partialRectangle;connectable=0;fillColor=none;top=0;left=0;bottom=0;right=0;editable=1;overflow=hidden;" parent="Jv_EFJqljLIG1eJtzvKQ-92" vertex="1">
                    <mxGeometry width="30" height="30" as="geometry"/>
                </mxCell>
                <mxCell id="Jv_EFJqljLIG1eJtzvKQ-94" value="longitude float" style="shape=partialRectangle;connectable=0;fillColor=none;top=0;left=0;bottom=0;right=0;align=left;spacingLeft=6;overflow=hidden;" parent="Jv_EFJqljLIG1eJtzvKQ-92" vertex="1">
                    <mxGeometry x="30" width="150" height="30" as="geometry"/>
                </mxCell>
                <mxCell id="Jv_EFJqljLIG1eJtzvKQ-95" value="time" style="shape=table;startSize=30;container=1;collapsible=1;childLayout=tableLayout;fixedRows=1;rowLines=0;fontStyle=1;align=center;resizeLast=1;" parent="1" vertex="1">
                    <mxGeometry x="620" y="80" width="180" height="250" as="geometry"/>
                </mxCell>
                <mxCell id="Jv_EFJqljLIG1eJtzvKQ-96" value="" style="shape=partialRectangle;collapsible=0;dropTarget=0;pointerEvents=0;fillColor=none;top=0;left=0;bottom=1;right=0;points=[[0,0.5],[1,0.5]];portConstraint=eastwest;" parent="Jv_EFJqljLIG1eJtzvKQ-95" vertex="1">
                    <mxGeometry y="30" width="180" height="30" as="geometry"/>
                </mxCell>
                <mxCell id="Jv_EFJqljLIG1eJtzvKQ-97" value="PK" style="shape=partialRectangle;connectable=0;fillColor=none;top=0;left=0;bottom=0;right=0;fontStyle=1;overflow=hidden;" parent="Jv_EFJqljLIG1eJtzvKQ-96" vertex="1">
                    <mxGeometry width="30" height="30" as="geometry"/>
                </mxCell>
                <mxCell id="Jv_EFJqljLIG1eJtzvKQ-98" value="start_time timestamp" style="shape=partialRectangle;connectable=0;fillColor=none;top=0;left=0;bottom=0;right=0;align=left;spacingLeft=6;fontStyle=5;overflow=hidden;" parent="Jv_EFJqljLIG1eJtzvKQ-96" vertex="1">
                    <mxGeometry x="30" width="150" height="30" as="geometry"/>
                </mxCell>
                <mxCell id="Jv_EFJqljLIG1eJtzvKQ-99" value="" style="shape=partialRectangle;collapsible=0;dropTarget=0;pointerEvents=0;fillColor=none;top=0;left=0;bottom=0;right=0;points=[[0,0.5],[1,0.5]];portConstraint=eastwest;" parent="Jv_EFJqljLIG1eJtzvKQ-95" vertex="1">
                    <mxGeometry y="60" width="180" height="30" as="geometry"/>
                </mxCell>
                <mxCell id="Jv_EFJqljLIG1eJtzvKQ-100" value="" style="shape=partialRectangle;connectable=0;fillColor=none;top=0;left=0;bottom=0;right=0;editable=1;overflow=hidden;" parent="Jv_EFJqljLIG1eJtzvKQ-99" vertex="1">
                    <mxGeometry width="30" height="30" as="geometry"/>
                </mxCell>
                <mxCell id="Jv_EFJqljLIG1eJtzvKQ-101" value="hour int" style="shape=partialRectangle;connectable=0;fillColor=none;top=0;left=0;bottom=0;right=0;align=left;spacingLeft=6;overflow=hidden;" parent="Jv_EFJqljLIG1eJtzvKQ-99" vertex="1">
                    <mxGeometry x="30" width="150" height="30" as="geometry"/>
                </mxCell>
                <mxCell id="Jv_EFJqljLIG1eJtzvKQ-102" value="" style="shape=partialRectangle;collapsible=0;dropTarget=0;pointerEvents=0;fillColor=none;top=0;left=0;bottom=0;right=0;points=[[0,0.5],[1,0.5]];portConstraint=eastwest;" parent="Jv_EFJqljLIG1eJtzvKQ-95" vertex="1">
                    <mxGeometry y="90" width="180" height="30" as="geometry"/>
                </mxCell>
                <mxCell id="Jv_EFJqljLIG1eJtzvKQ-103" value="" style="shape=partialRectangle;connectable=0;fillColor=none;top=0;left=0;bottom=0;right=0;editable=1;overflow=hidden;" parent="Jv_EFJqljLIG1eJtzvKQ-102" vertex="1">
                    <mxGeometry width="30" height="30" as="geometry"/>
                </mxCell>
                <mxCell id="Jv_EFJqljLIG1eJtzvKQ-104" value="day int" style="shape=partialRectangle;connectable=0;fillColor=none;top=0;left=0;bottom=0;right=0;align=left;spacingLeft=6;overflow=hidden;" parent="Jv_EFJqljLIG1eJtzvKQ-102" vertex="1">
                    <mxGeometry x="30" width="150" height="30" as="geometry"/>
                </mxCell>
                <mxCell id="Jv_EFJqljLIG1eJtzvKQ-105" value="" style="shape=partialRectangle;collapsible=0;dropTarget=0;pointerEvents=0;fillColor=none;top=0;left=0;bottom=0;right=0;points=[[0,0.5],[1,0.5]];portConstraint=eastwest;" parent="Jv_EFJqljLIG1eJtzvKQ-95" vertex="1">
                    <mxGeometry y="120" width="180" height="30" as="geometry"/>
                </mxCell>
                <mxCell id="Jv_EFJqljLIG1eJtzvKQ-106" value="" style="shape=partialRectangle;connectable=0;fillColor=none;top=0;left=0;bottom=0;right=0;editable=1;overflow=hidden;" parent="Jv_EFJqljLIG1eJtzvKQ-105" vertex="1">
                    <mxGeometry width="30" height="30" as="geometry"/>
                </mxCell>
                <mxCell id="Jv_EFJqljLIG1eJtzvKQ-107" value="week int" style="shape=partialRectangle;connectable=0;fillColor=none;top=0;left=0;bottom=0;right=0;align=left;spacingLeft=6;overflow=hidden;" parent="Jv_EFJqljLIG1eJtzvKQ-105" vertex="1">
                    <mxGeometry x="30" width="150" height="30" as="geometry"/>
                </mxCell>
                <mxCell id="Jv_EFJqljLIG1eJtzvKQ-108" style="shape=partialRectangle;collapsible=0;dropTarget=0;pointerEvents=0;fillColor=none;top=0;left=0;bottom=0;right=0;points=[[0,0.5],[1,0.5]];portConstraint=eastwest;" parent="Jv_EFJqljLIG1eJtzvKQ-95" vertex="1">
                    <mxGeometry y="150" width="180" height="30" as="geometry"/>
                </mxCell>
                <mxCell id="Jv_EFJqljLIG1eJtzvKQ-109" style="shape=partialRectangle;connectable=0;fillColor=none;top=0;left=0;bottom=0;right=0;editable=1;overflow=hidden;" parent="Jv_EFJqljLIG1eJtzvKQ-108" vertex="1">
                    <mxGeometry width="30" height="30" as="geometry"/>
                </mxCell>
                <mxCell id="Jv_EFJqljLIG1eJtzvKQ-110" value="month int" style="shape=partialRectangle;connectable=0;fillColor=none;top=0;left=0;bottom=0;right=0;align=left;spacingLeft=6;overflow=hidden;" parent="Jv_EFJqljLIG1eJtzvKQ-108" vertex="1">
                    <mxGeometry x="30" width="150" height="30" as="geometry"/>
                </mxCell>
                <mxCell id="Jv_EFJqljLIG1eJtzvKQ-111" style="shape=partialRectangle;collapsible=0;dropTarget=0;pointerEvents=0;fillColor=none;top=0;left=0;bottom=0;right=0;points=[[0,0.5],[1,0.5]];portConstraint=eastwest;" parent="Jv_EFJqljLIG1eJtzvKQ-95" vertex="1">
                    <mxGeometry y="180" width="180" height="30" as="geometry"/>
                </mxCell>
                <mxCell id="Jv_EFJqljLIG1eJtzvKQ-112" style="shape=partialRectangle;connectable=0;fillColor=none;top=0;left=0;bottom=0;right=0;editable=1;overflow=hidden;" parent="Jv_EFJqljLIG1eJtzvKQ-111" vertex="1">
                    <mxGeometry width="30" height="30" as="geometry"/>
                </mxCell>
                <mxCell id="Jv_EFJqljLIG1eJtzvKQ-113" value="year int" style="shape=partialRectangle;connectable=0;fillColor=none;top=0;left=0;bottom=0;right=0;align=left;spacingLeft=6;overflow=hidden;" parent="Jv_EFJqljLIG1eJtzvKQ-111" vertex="1">
                    <mxGeometry x="30" width="150" height="30" as="geometry"/>
                </mxCell>
                <mxCell id="Jv_EFJqljLIG1eJtzvKQ-114" style="shape=partialRectangle;collapsible=0;dropTarget=0;pointerEvents=0;fillColor=none;top=0;left=0;bottom=0;right=0;points=[[0,0.5],[1,0.5]];portConstraint=eastwest;" parent="Jv_EFJqljLIG1eJtzvKQ-95" vertex="1">
                    <mxGeometry y="210" width="180" height="30" as="geometry"/>
                </mxCell>
                <mxCell id="Jv_EFJqljLIG1eJtzvKQ-115" style="shape=partialRectangle;connectable=0;fillColor=none;top=0;left=0;bottom=0;right=0;editable=1;overflow=hidden;" parent="Jv_EFJqljLIG1eJtzvKQ-114" vertex="1">
                    <mxGeometry width="30" height="30" as="geometry"/>
                </mxCell>
                <mxCell id="Jv_EFJqljLIG1eJtzvKQ-116" value="weekday int" style="shape=partialRectangle;connectable=0;fillColor=none;top=0;left=0;bottom=0;right=0;align=left;spacingLeft=6;overflow=hidden;" parent="Jv_EFJqljLIG1eJtzvKQ-114" vertex="1">
                    <mxGeometry x="30" width="150" height="30" as="geometry"/>
                </mxCell>
                <mxCell id="Jv_EFJqljLIG1eJtzvKQ-124" value="" style="edgeStyle=entityRelationEdgeStyle;fontSize=12;html=1;endArrow=ERzeroToMany;startArrow=ERone;entryX=1;entryY=0.5;entryDx=0;entryDy=0;exitX=-0.011;exitY=0.06;exitDx=0;exitDy=0;exitPerimeter=0;endFill=1;startFill=0;" parent="1" source="Jv_EFJqljLIG1eJtzvKQ-95" target="Jv_EFJqljLIG1eJtzvKQ-17" edge="1">
                    <mxGeometry width="100" height="100" relative="1" as="geometry">
                        <mxPoint x="340" y="590" as="sourcePoint"/>
                        <mxPoint x="440" y="490" as="targetPoint"/>
                    </mxGeometry>
                </mxCell>
                <mxCell id="Jv_EFJqljLIG1eJtzvKQ-125" value="" style="edgeStyle=entityRelationEdgeStyle;fontSize=12;html=1;endArrow=ERzeroToMany;startArrow=ERone;exitX=1;exitY=0.5;exitDx=0;exitDy=0;entryX=0;entryY=0.5;entryDx=0;entryDy=0;endFill=1;startFill=0;" parent="1" source="Jv_EFJqljLIG1eJtzvKQ-48" target="Jv_EFJqljLIG1eJtzvKQ-20" edge="1">
                    <mxGeometry width="100" height="100" relative="1" as="geometry">
                        <mxPoint x="340" y="590" as="sourcePoint"/>
                        <mxPoint x="150" y="410" as="targetPoint"/>
                    </mxGeometry>
                </mxCell>
                <mxCell id="Jv_EFJqljLIG1eJtzvKQ-126" style="edgeStyle=orthogonalEdgeStyle;rounded=1;orthogonalLoop=1;jettySize=auto;html=1;entryX=1;entryY=0.5;entryDx=0;entryDy=0;endArrow=ERone;endFill=0;startArrow=ERzeroToMany;startFill=1;" parent="1" source="Jv_EFJqljLIG1eJtzvKQ-26" target="Jv_EFJqljLIG1eJtzvKQ-64" edge="1">
                    <mxGeometry relative="1" as="geometry">
                        <Array as="points">
                            <mxPoint x="310" y="475"/>
                            <mxPoint x="310" y="695"/>
                        </Array>
                    </mxGeometry>
                </mxCell>
                <mxCell id="Jv_EFJqljLIG1eJtzvKQ-127" style="edgeStyle=orthogonalEdgeStyle;rounded=1;orthogonalLoop=1;jettySize=auto;html=1;entryX=1;entryY=0.5;entryDx=0;entryDy=0;startArrow=ERone;startFill=0;endArrow=ERoneToMany;endFill=0;" parent="1" source="Jv_EFJqljLIG1eJtzvKQ-80" target="Jv_EFJqljLIG1eJtzvKQ-70" edge="1">
                    <mxGeometry relative="1" as="geometry"/>
                </mxCell>
                <mxCell id="Jv_EFJqljLIG1eJtzvKQ-128" style="edgeStyle=orthogonalEdgeStyle;rounded=1;orthogonalLoop=1;jettySize=auto;html=1;entryX=0.5;entryY=0;entryDx=0;entryDy=0;startArrow=ERzeroToMany;startFill=1;endArrow=ERone;endFill=0;" parent="1" source="Jv_EFJqljLIG1eJtzvKQ-29" target="Jv_EFJqljLIG1eJtzvKQ-79" edge="1">
                    <mxGeometry relative="1" as="geometry"/>
                </mxCell>
            </root>
        </mxGraphModel>
    </diagram>
</mxfile>